<?xml version="1.0" encoding="UTF-8" standalone="no"?>
<!-- Created with Inkscape (http://www.inkscape.org/) -->

<svg
   version="1.1"
   id="svg1"
   width="300"
   height="300"
   viewBox="0 0 300 300"
   sodipodi:docname="hawks-logo.svg"
   inkscape:version="1.3.2 (091e20e, 2023-11-25)"
   xmlns:inkscape="http://www.inkscape.org/namespaces/inkscape"
   xmlns:sodipodi="http://sodipodi.sourceforge.net/DTD/sodipodi-0.dtd"
   xmlns="http://www.w3.org/2000/svg"
   xmlns:svg="http://www.w3.org/2000/svg">
  <defs
     id="defs1" />
  <sodipodi:namedview
     id="namedview1"
     pagecolor="#ffffff"
     bordercolor="#000000"
     borderopacity="0.25"
     inkscape:showpageshadow="2"
     inkscape:pageopacity="0.0"
     inkscape:pagecheckerboard="0"
     inkscape:deskcolor="#d1d1d1"
     inkscape:zoom="1.7031175"
     inkscape:cx="130.64278"
     inkscape:cy="150.60617"
     inkscape:window-width="1728"
     inkscape:window-height="996"
     inkscape:window-x="0"
     inkscape:window-y="38"
     inkscape:window-maximized="1"
     inkscape:current-layer="g1" />
  <g
     inkscape:groupmode="layer"
     inkscape:label="Image"
     id="g1">
    <g
       id="g90007"
       transform="translate(-2.9357927,2.3486345)">
      <path
         style="fill:#b9b9b9;fill-opacity:1"
         d="m 195.5,239.34174 c -25.13222,-2.02345 -38.92788,-8.02391 -57,-24.79229 -7.33576,-6.80655 -11.83233,-8.89356 -19.05653,-8.84476 -3.3311,0.0225 -8.66696,0.79978 -11.85749,1.72729 -3.19052,0.92751 -5.91624,1.54725 -6.05715,1.3772 -0.14091,-0.17005 -2.140965,-3.31989 -4.444563,-6.99965 -4.722211,-7.54325 -14.166453,-16.78817 -20.41233,-19.98155 -5.418702,-2.77045 -13.118941,-4.80119 -18.261974,-4.81611 -5.970942,-0.0173 -18.838964,3.51253 -27.137888,7.44426 -4.357802,2.06456 -7.474088,3.02602 -7.847845,2.42127 -0.340955,-0.55168 -0.85556,-5.36228 -1.143566,-10.69022 -0.647318,-11.97502 1.468367,-24.21227 5.646999,-32.66261 1.625145,-3.28649 2.84345,-6.08679 2.707344,-6.2229 -0.136105,-0.1361 -1.936486,0.2189 -4.000846,0.7889 -2.06436,0.56999 -4.181745,0.89357 -4.705301,0.71905 -1.818658,-0.60622 14.879662,-21.38061 24.971291,-31.0668 10.098007,-9.692306 10.133653,-9.743337 6.875242,-9.8425 -1.801466,-0.05482 -4.37829,-0.407394 -5.726275,-0.78349 -2.272232,-0.633965 -1.976821,-0.983207 4.052705,-4.791197 C 61.367074,86.474098 75.338323,79.642354 83.5,76.972367 92.263827,74.105395 92.841167,73.591063 89.055635,72.023045 87.375036,71.326918 86,70.421252 86,70.010455 c 0,-1.150275 10.484539,-3.829115 22.05618,-5.635437 12.65123,-1.974846 41.72428,-2.222852 53.8503,-0.459368 34.37963,4.999821 63.49335,19.80893 76.57121,38.94904 4.44793,6.50979 4.94787,7.82223 5.45931,14.3318 l 0.563,7.16578 8.08668,3.15416 c 29.03323,11.32421 37.8394,19.71433 37.76796,35.98357 -0.0365,8.31239 -2.76835,16.95671 -8.36575,26.47147 -4.03451,6.85806 -12.78261,18.15034 -14.49035,18.70452 -0.5508,0.17874 -2.08406,-1.71575 -3.40725,-4.20998 -1.32319,-2.49423 -3.97769,-5.91511 -5.8989,-7.60195 l -3.49312,-3.067 -12.09963,0.85147 c -6.6548,0.46831 -22.78714,0.84638 -35.84964,0.84015 L 183,195.47736 v 3.67234 c 0,7.95996 7.02661,20.27732 19.84894,34.79438 L 208.19789,240 203.84894,239.8319 C 201.45702,239.73944 197.7,239.51887 195.5,239.34174 Z m -4.62803,-8.24448 C 180.25384,216.37134 175.06572,205.50813 175.02109,197.90774 L 175,194.31549 l -7.75,-1.55567 c -4.2625,-0.85562 -9.08614,-2.07797 -10.71921,-2.71634 l -2.96921,-1.16066 4.58496,-4.20972 c 5.27368,-4.84207 10.1125,-13.60893 9.66195,-17.50528 -0.24421,-2.11191 -2.12936,-3.87211 -9.04681,-8.44721 -13.12835,-8.68288 -13.02139,-12.65827 0.43127,-16.02921 8.75729,-2.19439 20.41441,-3.51935 40.36098,-4.58748 C 216.18623,137.21327 224,135.60556 224,133.07408 c 0,-1.60498 -4.42068,-4.10581 -8.39898,-4.7514 -3.00436,-0.48754 -4.05017,-0.14626 -6.22921,2.03279 -5.17779,5.17779 -17.38119,6.25044 -25.91268,2.27766 -5.13952,-2.39328 -9.78447,-6.93211 -10.99393,-10.74278 -0.61018,-1.9225 -1.15339,-2.0581 -5.8191,-1.45253 -16.58866,2.15304 -31.85149,8.56122 -35.33888,14.83722 -2.39508,4.31024 -0.96703,10.91506 3.44949,15.95411 1.77565,2.02594 1.3228,2.2782 -5.78928,3.22487 -12.15483,1.61789 -17.24697,10.61629 -12.44399,21.98997 6.22443,14.73973 32.92635,41.66938 49.79037,50.21503 5.66189,2.8691 17.63529,6.20553 22.55816,6.28592 3.13178,0.0511 3.27425,-0.0805 2,-1.84768 z m 86.85642,-48.95025 c 4.39298,-8.70698 4.71956,-9.88116 4.72831,-17 0.0157,-12.76219 -4.93556,-19.22084 -20.22893,-26.38755 -10.74901,-5.03716 -28.63637,-9.75086 -30.38115,-8.00608 -1.88221,1.88221 1.22286,7.45679 6.06035,10.88025 2.22768,1.5765 4.05994,3.26184 4.07168,3.7452 0.0123,0.50511 -2.21121,0.50511 -5.22865,0 -2.8875,-0.48336 -17.85,-0.83815 -33.25,-0.78842 -22.0401,0.0712 -29.5825,0.44041 -35.43472,1.73471 -8.85179,1.95772 -10.09583,2.87866 -7.60563,5.63029 2.42973,2.68482 10.1592,5.46977 23.77227,8.56521 17.34953,3.94506 51.55709,15.77194 63.65854,22.00922 5.83525,3.00758 12.85954,7.45684 15.60954,9.88725 l 5,4.41892 2.25474,-2.66801 c 1.24011,-1.4674 4.37825,-6.87684 6.97365,-12.02099 z M 260,153.99987 c -1.375,-1.07561 -4.64178,-2.67819 -7.25952,-3.56129 -4.94616,-1.6686 -7.16777,-4.16151 -6.12659,-6.87477 0.83856,-2.18526 4.72769,-2.9758 7.54297,-1.53325 C 257.92849,143.96314 266,152.2655 266,154.21241 c 0,2.35973 -2.84037,2.25912 -6,-0.21254 z m -17.13078,35.05643 c 6.44895,-1.7155 -44.55348,-20.78698 -62.97964,-23.55015 l -4.60449,-0.69049 -0.66904,4.18394 c -0.78089,4.88343 -3.46363,10.47738 -7.09366,14.79142 -2.84929,3.38619 -2.9719,3.2555 4.47761,4.77231 10.28622,2.09438 63.45872,2.46426 70.86922,0.49297 z M 198,127.11663 c 0,-0.48585 -0.88916,-1.11589 -1.97591,-1.40008 -3.29094,-0.8606 -4.65088,-5.17894 -2.83209,-8.99304 2.01795,-4.23177 1.13578,-6.34456 -4.92332,-11.79125 -4.672,-4.19979 -16.0117,-11.197455 -15.09317,-9.313913 2.82323,5.789293 4.08674,9.576373 5.28566,15.842543 1.72791,9.031 3.70758,12.2566 8.99692,14.6592 4.22528,1.91928 10.54191,2.5164 10.54191,0.99654 z"
         id="path90013" />
      <path
         style="fill:#a3a3a3;fill-opacity:1"
         d="m 192.22024,238.92739 c -22.77792,-2.20107 -34.74996,-7.76856 -55.46833,-25.79506 -9.92477,-8.63528 -16.5193,-9.83672 -30.06669,-5.47775 -2.64813,0.85205 -4.93055,1.39084 -5.07204,1.1973 -0.14149,-0.19353 -1.49936,-2.5202 -3.017505,-5.17037 -4.954013,-8.64806 -15.015,-18.28546 -23.427659,-22.44132 -7.206724,-3.56013 -8.03088,-3.73636 -17.119613,-3.66058 -8.144816,0.0679 -10.871376,0.55825 -18.548403,3.33567 -4.95,1.79084 -10.449912,4.09491 -12.222027,5.12016 -2.113638,1.22284 -3.446089,1.50156 -3.873363,0.81022 -1.220483,-1.97479 -0.84559,-25.28525 0.504095,-31.34407 1.107487,-4.97157 2.842366,-9.45659 6.921191,-17.89272 0.236972,-0.49012 -0.640312,-0.63086 -1.949519,-0.31275 -1.309207,0.31811 -3.668372,0.89308 -5.242589,1.27771 -2.753627,0.67278 -2.620846,0.36218 3.5,-8.18726 3.499217,-4.88761 11.564151,-14.14361 17.922076,-20.56888 L 56.619727,98.135375 51.809864,97.47385 C 49.164439,97.110011 47,96.503082 47,96.12512 47,95.104277 63.389727,85.601969 72,81.630815 c 4.125,-1.902496 10.311876,-4.285223 13.748614,-5.294949 3.436738,-1.009726 6.249238,-2.212455 6.25,-2.67273 C 91.999376,73.202861 90.65,72.316704 89,71.693898 c -1.65,-0.622805 -3,-1.435243 -3,-1.805416 0,-0.898039 11.163344,-3.514051 23.5,-5.506978 14.85259,-2.399364 41.64267,-2.141678 56.93069,0.5476 27.95769,4.917971 51.4231,15.731052 65.5375,30.200301 8.08237,8.285565 12.02874,15.989965 12.04265,23.510575 l 0.0108,5.86002 7.73917,2.88515 c 4.25654,1.58684 11.84153,4.83295 16.85553,7.21358 22.72977,10.79202 27.52994,27.83621 14.75782,52.40127 -3.5414,6.81129 -14.0628,21.08988 -16.00485,21.72016 -0.62186,0.20182 -1.41032,-0.7473 -1.75213,-2.10917 -0.3418,-1.36186 -2.78422,-4.8282 -5.42758,-7.70298 l -4.80612,-5.22687 -21.87449,1.2953 c -13.27891,0.78631 -27.50046,1.02178 -36.19176,0.59924 L 183,194.87962 l 0.0237,4.31019 c 0.0459,8.32983 5.75411,18.82085 17.69341,32.51819 3.45557,3.9644 6.28285,7.4519 6.28285,7.75 0,0.66072 -3.9001,0.52071 -14.77976,-0.53061 z m 0.13821,-6.17739 c -0.41777,-0.6875 -2.74238,-3.95 -5.16581,-7.25 -7.40361,-10.08156 -12.14811,-21.26226 -12.18077,-28.70469 -0.0103,-2.3428 -0.51362,-2.78965 -3.76187,-3.33974 -6.3333,-1.07252 -15.27384,-3.68513 -15.8608,-4.63484 -0.30609,-0.49527 1.26677,-2.57005 3.49524,-4.61061 C 163.53451,179.95216 168,171.98181 168,167.93995 c 0,-3.19638 -3.07899,-6.12194 -11.5345,-10.95969 -5.41049,-3.09557 -8.13958,-6.78125 -7.07515,-9.5551 1.5313,-3.99052 21.86017,-7.63823 51.67141,-9.27166 C 217.9133,137.23017 224,135.75342 224,132.58826 224,130.82051 218.0207,128 214.27318,128 c -1.79473,0 -3.79631,0.92794 -5.18111,2.40199 -4.02811,4.28773 -15.75242,5.88046 -23.3441,3.17126 -5.41254,-1.93155 -10.20506,-5.90938 -12.20994,-10.13435 l -1.74342,-3.67399 -5.81161,0.6575 c -13.73316,1.55373 -30.09279,8.11429 -34.03315,13.64801 -2.93684,4.12442 -2.55296,9.79694 0.99441,14.69394 3.19298,4.40778 2.76836,5.21197 -2.77605,5.2576 -3.71053,0.0305 -10.18576,3.19075 -13.16821,6.42669 -6.9331,7.52236 0.60998,23.82212 20.12333,43.48428 17.68652,17.82141 32.61113,26.62771 49.26387,29.06825 2.81204,0.41212 5.47686,0.80545 5.92182,0.87406 0.44496,0.0686 0.4672,-0.43774 0.0494,-1.12524 z m 85.07984,-48.76452 c 11.07231,-21.07065 6.79814,-34.8995 -13.92265,-45.0459 -8.06887,-3.95111 -24.65941,-8.93237 -29.76564,-8.93706 -2.31753,-0.002 -2.75,0.41955 -2.75,2.68132 0,1.91722 1.45199,4.08337 5.08324,7.58343 2.79578,2.69477 4.85647,5.12636 4.5793,5.40352 -0.27716,0.27716 -3.12712,-0.0979 -6.33323,-0.83343 -4.09435,-0.93932 -12.2283,-1.27099 -27.32931,-1.11435 -53.70387,0.55706 -62.90999,6.97065 -24.20158,16.86043 44.92149,11.47719 70.68478,22.27766 84.15756,35.28048 1.25823,1.21433 1.83096,0.95603 4.21668,-1.90168 1.51839,-1.81878 4.33792,-6.30832 6.26563,-9.97676 z m -17.34996,-30.42031 c -1.8342,-1.35323 -4.74192,-2.75907 -6.46162,-3.12409 -6.07331,-1.28911 -8.76942,-6.22397 -4.61509,-8.4473 2.82833,-1.51368 7.85873,1.05704 13.01536,6.65131 5.73486,6.2216 4.40389,9.59946 -1.93865,4.92008 z m -32.70086,36.76911 c 16.81789,-0.58775 18.68065,-0.81979 17,-2.11766 -6.89514,-5.32473 -41.89139,-18.16764 -59.96651,-22.00648 l -9.07904,-1.92822 -1.1788,5.7072 c -0.77493,3.75184 -2.5496,7.6215 -5.17982,11.29455 -2.20055,3.07304 -3.65953,5.79387 -3.24216,6.04629 0.90267,0.54592 14.08087,2.55464 19.75886,3.01178 7.9722,0.64187 23.38603,0.63912 41.88747,-0.007 z m -28.9534,-63.22761 c 0.30366,-0.49133 -0.58509,-1.17874 -1.97499,-1.52758 -3.93131,-0.9867 -5.25284,-4.9497 -3.02813,-9.08074 1.77959,-3.30449 1.77251,-3.43308 -0.3807,-6.91704 -2.1321,-3.44982 -18.56505,-15.399845 -19.66472,-14.300173 -0.28878,0.288779 0.3488,2.25616 1.41685,4.371958 1.06804,2.115795 2.66754,7.442845 3.55443,11.837895 1.81107,8.97482 3.72275,12.21221 8.71427,14.75746 3.6257,1.84878 10.43303,2.36293 11.36299,0.85822 z"
         id="path90012" />
      <path
         style="fill:#8c8c8c;fill-opacity:1"
         d="m 194.19725,238.87456 c -15.86384,-1.3044 -30.25093,-5.63342 -40.39375,-12.15432 -2.91693,-1.87531 -8.9035,-6.69698 -13.3035,-10.71481 -12.40584,-11.32833 -18.04274,-12.94662 -31.80422,-9.13068 l -6.76093,1.87475 -4.458509,-6.89215 C 83.893209,180.85998 66.274844,173.17166 45.153535,179.02467 c -4.018446,1.11357 -10.248027,3.35853 -13.843514,4.9888 -3.595487,1.63027 -6.936122,2.71761 -7.423635,2.41631 C 23.398874,186.12848 23,180.13051 23,173.10095 c 0,-13.8615 2.175425,-25.34335 6.043998,-31.90009 1.1205,-1.89911 1.836183,-3.65401 1.590408,-3.89979 -0.245775,-0.24577 -2.151258,0.0237 -4.234406,0.59893 -2.083148,0.57518 -3.979196,0.85414 -4.21344,0.61989 -1.332789,-1.33279 18.435205,-25.26374 27.780409,-33.63071 3.846601,-3.44395 6.821631,-6.433913 6.611177,-6.644367 -0.210454,-0.210454 -2.564131,-0.697932 -5.230395,-1.083285 L 46.5,96.460886 51.080302,93.299157 C 57.849724,88.626306 76.871303,79.324526 84.92496,76.748716 88.79198,75.511922 91.965827,74.152853 91.977953,73.728561 91.990079,73.30427 90.875,72.444538 89.5,71.818046 88.125,71.191554 87,70.337271 87,69.919639 c 0,-0.964313 11.500711,-3.591581 23.91148,-5.462434 11.18655,-1.686309 37.03534,-1.909315 48.89802,-0.421861 4.54137,0.56944 13.30456,2.315087 19.47377,3.879217 23.63756,5.993031 38.47017,13.657832 51.44146,26.582551 9.80165,9.766468 13.2508,16.167598 13.2655,24.618898 l 0.01,5.61601 6.25,2.25512 c 11.62796,4.1956 26.39302,11.6956 30.73974,15.61443 11.42986,10.3047 12.05818,27.2326 1.69153,45.57264 -3.99693,7.07111 -13.62919,19.9751 -15.33497,20.54369 -0.60919,0.20306 -1.40113,-0.80024 -1.75987,-2.22957 -0.35874,-1.42932 -3.07984,-5.10512 -6.0469,-8.16843 -4.93216,-5.09218 -5.67947,-5.51783 -8.71708,-4.96509 -8.67743,1.57899 -37.76449,2.82781 -52.07245,2.23566 l -15.75,-0.65183 7.9e-4,4.78068 c 5.2e-4,3.18157 0.953,6.78765 2.8475,10.78068 3.03564,6.39821 12.94388,20.08053 18.05853,24.93709 3.26738,3.1025 3.91393,4.65427 1.84318,4.42376 -0.6875,-0.0765 -5.88624,-0.52036 -11.55275,-0.98629 z M 193,233.46374 c 0,-0.29494 -2.32165,-3.55744 -5.15922,-7.25 -6.51814,-8.4821 -10.70105,-17.35057 -12.13669,-25.73178 -0.90978,-5.31125 -1.50744,-6.62518 -3.16292,-6.95351 -8.38256,-1.66253 -16.64647,-3.88981 -17.08898,-4.60581 -0.2915,-0.47165 1.20288,-2.4231 3.32083,-4.33654 3.64401,-3.29215 8.22904,-10.52844 9.64505,-15.22224 0.91011,-3.01683 -3.05008,-7.37449 -10.84666,-11.9353 -9.67961,-5.66233 -10.78895,-10.07718 -3.23324,-12.86739 8.5819,-3.16918 22.46097,-5.01629 48.17633,-6.41161 16.02327,-0.86942 20.9855,-2.2011 20.9855,-5.63173 0,-1.42562 -1.32162,-2.44593 -4.87925,-3.76685 -4.68166,-1.73826 -4.98033,-1.73953 -7.3753,-0.0313 -6.23144,4.44463 -7.95351,5.22487 -12.89412,5.84216 -10.49355,1.31108 -20.69855,-3.53125 -25.00913,-11.86699 -1.46387,-2.83082 -1.74902,-2.93267 -6.76195,-2.41529 -6.77752,0.6995 -17.87488,3.49329 -23.57914,5.93611 -13.19684,5.65148 -16.86578,14.33019 -9.83614,23.26693 2.55585,3.24923 1.7791,4.00185 -5.06756,4.91009 -9.43311,1.25135 -15.15833,8.1386 -13.61299,16.37598 2.94045,15.67393 30.54324,45.27596 52.01558,55.78302 9.48357,4.6406 26.5,9.07903 26.5,6.91205 z m 79.7017,-41.21567 c 21.06111,-31.23323 12.10424,-50.09225 -28.69068,-60.40932 -10.60852,-2.68291 -11.58234,-2.77791 -12.70715,-1.23964 -1.64776,2.25345 0.27434,5.88366 5.72032,10.80378 2.28452,2.06392 4.00115,3.88663 3.81474,4.05045 -0.18641,0.16383 -3.71393,-0.30329 -7.83893,-1.03805 -14.94451,-2.66193 -57.52842,-1.13929 -68.5,2.4493 -3.76641,1.23193 -5,2.12403 -5,3.6159 0,3.27896 6.92166,6.17806 27.61205,11.56513 40.65519,10.58524 68.85627,22.42199 78.31084,32.86917 2.71815,3.00353 3.69712,2.64487 7.27881,-2.66672 z M 259.68242,153.25 c -0.96038,-0.9625 -3.82767,-2.425 -6.37174,-3.25 -2.54407,-0.825 -5.07635,-2.22633 -5.62728,-3.11408 C 246.09823,144.33167 247.5944,142 250.81858,142 255.46725,142 265,149.87987 265,153.72251 c 0,1.8565 -3.28494,1.56461 -5.31758,-0.47251 z M 233.25,190.34162 c 7.0125,-0.35764 12.75,-0.96043 12.75,-1.33953 0,-1.17488 -20.95173,-10.65689 -32,-14.48207 -8.75279,-3.03043 -23.9299,-7.19406 -36.16749,-9.92207 -2.53158,-0.56434 -2.7246,-0.32838 -3.7882,4.63102 -1.21473,5.66413 -4.60925,12.16234 -7.91709,15.15589 -1.14403,1.03534 -1.86407,2.2319 -1.60009,2.65903 0.45468,0.7357 9.86215,2.50082 17.47287,3.27843 6.48646,0.66274 38.39822,0.67476 51.25,0.0193 z M 199,127.10841 c 0,-0.49038 -1.1403,-1.17779 -2.53401,-1.52759 -3.83615,-0.96281 -5.04905,-4.54985 -2.99915,-8.86969 1.54919,-3.26467 1.55387,-3.7704 0.0617,-6.65599 -0.88819,-1.71758 -4.40796,-5.18003 -7.8217,-7.69435 -6.34682,-4.6746 -14.25013,-9.169741 -13.51434,-7.686503 3.61701,7.291303 5.09744,11.439553 5.92669,16.606893 C 179.90994,122.44024 185.24021,128 194.14788,128 196.81655,128 199,127.59878 199,127.10841 Z"
         id="path90011" />
      <path
         style="fill:#767676;fill-opacity:1"
         d="m 195.90101,238.92515 c -17.92216,-1.4843 -33.30092,-6.28001 -44.17694,-13.77612 -2.32324,-1.60125 -7.59286,-5.93491 -11.71026,-9.63037 -4.11741,-3.69545 -9.16198,-7.57393 -11.21016,-8.61883 -4.81642,-2.45716 -12.82611,-2.45985 -20.70724,-0.007 l -6.08177,1.89286 -3.720431,-6.12449 c -4.740224,-7.80325 -14.329144,-17.36028 -21.027038,-20.9571 -7.450231,-4.00083 -16.965,-5.80271 -24.355912,-4.61244 -6.305277,1.01544 -17.926468,4.89625 -24.258164,8.10084 -2.115798,1.07085 -4.140798,1.65092 -4.5,1.28905 -0.359202,-0.36186 -0.627005,-7.48075 -0.595117,-15.81976 0.05015,-13.11426 0.364984,-16.0342 2.33131,-21.62164 1.250332,-3.5529 3.167384,-7.7154 4.260116,-9.25 C 32.030394,137.14857 32.039025,137 30.311492,137 c -1.003583,0 -3.284225,0.41859 -5.068094,0.93019 C 23.459529,138.4418 22,138.64285 22,138.37697 c 0,-0.26588 2.50955,-3.87684 5.576777,-8.02435 C 35.071807,120.21783 47.801436,106.18767 52.847576,102.5 58.483153,98.381579 58.210882,97.008295 51.75,96.964037 l -5.25,-0.03596 3,-2.45098 c 4.507247,-3.682391 24.919598,-13.911378 34,-17.037996 4.4,-1.515034 8.362536,-3.068654 8.805635,-3.452488 0.443099,-0.383834 -0.569401,-1.267438 -2.25,-1.963565 C 88.375036,71.326918 87,70.444233 87,70.061523 c 0,-0.739743 9.934905,-3.183126 21.5,-5.287693 4.36347,-0.794045 15.28625,-1.254728 29,-1.223115 18.82322,0.04339 23.51619,0.372784 32.5,2.281121 28.33032,6.017913 49.19792,16.123128 62.565,30.297329 7.79144,8.261895 10.73386,13.988665 11.38358,22.155625 l 0.55142,6.93139 7.5,2.73777 c 27.43009,10.01296 36.70132,18.13941 37.77234,33.10834 0.94523,13.2107 -5.8723,28.7019 -19.71793,44.80433 l -2.89477,3.36661 -1.99554,-3.91156 c -1.09754,-2.15136 -4.09758,-5.84917 -6.66676,-8.21736 -4.0773,-3.75832 -5.0734,-4.22357 -7.83429,-3.65919 -1.73968,0.35562 -17.67555,0.90432 -35.41305,1.21933 L 183,195.23718 v 4.37068 c 0,8.64961 6.42584,20.17726 18.54297,33.26521 5.23156,5.65071 6.33663,7.29104 4.70703,6.987 -0.4125,-0.077 -5.06954,-0.49768 -10.34899,-0.93492 z M 193,233.56076 c 0,-0.24158 -2.53728,-3.95408 -5.63841,-8.25 -3.10112,-4.29592 -6.64601,-10.06148 -7.87753,-12.81235 -2.55552,-5.70834 -4.91771,-15.98773 -4.01107,-17.4547 0.5706,-0.92326 -0.21337,-1.20393 -7.22299,-2.58587 -1.5125,-0.29819 -5.17718,-1.22956 -8.14374,-2.06972 l -5.39373,-1.52756 4.59423,-4.68028 c 5.30228,-5.4016 10.17204,-15.09636 9.16956,-18.25488 -0.36481,-1.14942 -3.43372,-3.82646 -6.81981,-5.94897 -8.70451,-5.45627 -11.33491,-7.63863 -11.92455,-9.89341 -1.53617,-5.87433 12.60165,-9.22873 48.35524,-11.47298 16.14135,-1.01318 21.37173,-1.68072 23.35597,-2.98085 3.6803,-2.41142 3.16104,-4.45271 -1.69317,-6.65612 -5.4467,-2.47235 -7.00774,-2.45074 -9.34265,0.12931 -3.44819,3.8102 -7.44599,5.16256 -15.36548,5.19775 -5.72919,0.0255 -8.50326,-0.46526 -11.54187,-2.04172 -4.74924,-2.46396 -8.98094,-6.72108 -10.39055,-10.45298 -1.17138,-3.10118 -2.17043,-3.08177 -17.10707,0.33235 -14.55472,3.32683 -23.312,8.36706 -26.05861,14.99796 -0.98886,2.38733 -0.9039,3.68013 0.47997,7.30375 0.92483,2.42163 2.33283,4.94352 3.12889,5.60419 2.34506,1.94623 1.70441,2.73895 -2.80263,3.46788 -14.07137,2.27577 -19.58319,10.21533 -15.07725,21.7182 6.1618,15.72997 32.1883,42.52219 49.72366,51.18658 9.5177,4.70278 27.60359,9.38381 27.60359,7.14442 z m 80.04914,-41.63312 c 21.54564,-31.72736 10.88637,-51.31004 -33.45536,-61.46253 -6.02547,-1.3796 -7.09069,-1.39677 -8.35277,-0.13469 -2.12054,2.12053 -0.73211,5.26689 4.61921,10.46779 l 4.63109,4.5009 -3.49565,-0.73743 c -6.54839,-1.38142 -45.15038,-1.7906 -56.49566,-0.59885 -11.63908,1.22261 -20.97659,3.38126 -22.03519,5.09411 -2.08806,3.37855 7.63942,7.94098 27.66549,12.97582 20.68536,5.20059 34.56682,9.68841 51.04598,16.50294 13.92182,5.75701 19.66046,9.05038 26.82372,15.39395 2.475,2.19179 4.59573,4.00426 4.71274,4.02771 0.11701,0.0234 2.06839,-2.68992 4.3364,-6.02972 z M 259.02822,152.45096 C 257.11874,151.10293 254.53124,150 253.27822,150 251.04607,150 247,146.85661 247,145.12244 c 0,-0.48265 0.66916,-1.4329 1.48701,-2.11166 2.32932,-1.93316 6.21468,-0.36996 11.59938,4.6668 7.10681,6.64758 6.36116,10.01118 -1.05817,4.77338 z m -21.61042,37.89497 c 9.01329,-0.57015 9.74289,-0.76224 8,-2.10624 -3.10378,-2.39341 -17.05643,-8.66101 -29.26679,-13.14677 C 206.14598,171.41734 178.83243,164 175.30251,164 c -0.80267,0 -1.30281,1.24719 -1.3033,3.25 -9.4e-4,3.88792 -4.85354,14.48134 -7.8583,17.15499 -1.1775,1.04774 -2.14091,2.23429 -2.14091,2.63677 0,1.01596 10.94392,2.97937 22.13448,3.97108 9.32835,0.82668 32.41871,0.5264 51.28332,-0.66691 z M 199,127 c 0,-0.55 -0.64234,-1 -1.42742,-1 -0.78508,0 -2.34157,-1.16215 -3.45887,-2.58257 -1.91076,-2.42913 -1.94047,-2.80993 -0.50016,-6.40962 1.37876,-3.44584 1.3762,-4.12694 -0.0256,-6.83777 -0.85629,-1.65589 -3.47638,-4.57435 -5.82241,-6.48546 -5.11502,-4.166765 -14.8105,-9.972934 -15.50076,-9.282676 -0.27109,0.271094 0.46542,2.043477 1.63668,3.938629 1.17127,1.895157 3.02157,7.619747 4.11178,12.721327 2.04649,9.57643 3.36067,11.91121 8.48678,15.07758 3.20021,1.97675 12.5,2.617 12.5,0.86056 z"
         id="path90010" />
      <path
         style="fill:#606060;fill-opacity:1"
         d="m 188.5,237.87264 c -9.63071,-1.20298 -23.73742,-5.34891 -30.54416,-8.97686 -3.11945,-1.66265 -10.56655,-7.28759 -16.54912,-12.49987 -8.48167,-7.38961 -12.0115,-9.80656 -16.02664,-10.97379 -5.29107,-1.53816 -5.92587,-1.47354 -21.88008,2.22722 -1.57225,0.3647 -2.53469,-0.56411 -4.5,-4.34271 -3.639399,-6.9973 -15.336978,-18.46442 -22.5,-22.05672 -13.608299,-6.82464 -22.77354,-6.56277 -41.808065,1.19457 l -10.57855,4.31119 -0.696006,-5.57065 c -1.655928,-13.2536 1.455277,-32.66159 6.565977,-40.95919 C 31.09251,138.42504 32,136.77827 32,136.56634 c 0,-0.21192 -2.280305,0.21622 -5.067344,0.95143 l -5.067344,1.33674 1.719095,-2.67726 C 30.383235,125.58902 49.209074,104.53002 55.64613,100.3123 59.247731,97.952436 58.486848,97 53,97 50.25,97 48,96.639532 48,96.198961 48,93.761464 74.768106,80.175081 87.204678,76.300289 90.382702,75.31013 92.98675,74.200218 92.991452,73.833818 92.996153,73.467417 91.65,72.570067 90,71.839706 88.35,71.109345 87,70.248263 87,69.92619 c 0,-0.656838 11.633397,-3.238375 23,-5.10387 11.69189,-1.918881 44.45528,-1.573174 56.5,0.596167 28.58507,5.148376 50.06693,14.972262 64.4551,29.476006 9.18382,9.257587 12.45078,15.329087 12.70004,23.602437 0.11476,3.80893 0.6667,6.25968 1.51277,6.71709 0.73265,0.39608 7.15513,3.06917 14.27217,5.94018 15.65411,6.31487 23.77833,12.02114 27.51355,19.3249 3.66051,7.15767 3.60577,19.34467 -0.12711,28.29969 -4.27771,10.26206 -16.02711,27.82595 -19.33165,28.89842 -0.55282,0.17942 -1.6424,-1.11348 -2.42129,-2.8731 -0.77888,-1.75962 -3.39043,-5.17359 -5.80344,-7.5866 l -4.38729,-4.38729 -8.69142,0.83489 C 241.41114,194.1243 225.23737,194.5 210.2497,194.5 h -27.25029 l 10e-4,5.5 c 0.002,9.06963 3.29325,14.78681 20.82199,36.1672 l 2.32248,2.8328 -5.32248,-0.1265 c -2.92728,-0.0696 -8.4724,-0.51996 -12.3224,-1.00086 z m 4.5,-4.53177 c 0,-0.36252 -1.72631,-2.95002 -3.83624,-5.75 -9.04553,-12.00385 -11.989,-18.34164 -13.0268,-28.04883 l -0.63696,-5.95795 -4,-0.77066 c -2.2,-0.42386 -6.82684,-1.50914 -10.28187,-2.41172 l -6.28188,-1.64106 4.83364,-5.13033 c 2.6585,-2.82167 5.89005,-7.32373 7.18122,-10.00456 3.05544,-6.34394 2.13866,-9.07989 -4.46826,-13.33462 C 150.8458,152.79711 150,152.06832 150,149.53518 c 0,-5.7124 14.69117,-8.66683 56.65755,-11.39396 C 219.09936,137.3327 224,135.7386 224,132.5 c 0,-1.94201 -4.00048,-4.46354 -8.14982,-5.13689 -2.70319,-0.43866 -3.92471,-0.0234 -6.23842,2.12089 -3.9797,3.68827 -7.06369,4.68172 -14.61176,4.70694 -14.44674,0.0483 -22.05508,-7.23605 -25.54148,-24.45376 -0.91737,-4.53045 -2.2612,-9.67178 -2.9863,-11.425178 -1.47566,-3.568379 -7.85846,-8.62431 -13.05117,-10.338058 -6.1602,-2.033048 -3.99605,-3.258866 4.82895,-2.735216 15.84784,0.940365 28.9557,7.259784 43.24368,20.848172 11.14942,10.60349 13.56065,12.17127 22.1671,14.41296 6.93571,1.80652 8.85174,1.33729 10.18767,-2.49496 C 238.01865,106.04224 216.53243,87.669207 187,77.944447 181.775,76.223902 173.45,73.923142 168.5,72.831647 149.96341,68.744253 92.937332,69.35407 106,73.5 c 2.83986,0.901336 2.47571,2.365956 -0.75,3.01651 -9.094429,1.834143 -22.07647,6.324565 -31.221931,10.799507 L 63.5,92.467479 l 6.25,0.313978 c 3.4375,0.172688 6.248336,0.630005 6.246301,1.01626 -0.002,0.386256 -2.975619,2.239078 -6.607967,4.117383 -3.952325,2.043766 -10.038981,6.66159 -15.157903,11.5 -8.041186,7.60053 -18.701048,19.47751 -18.032552,20.09146 C 36.364046,129.65917 38.75,129.43122 41.5,129 c 2.75,-0.43122 5.165983,-0.62914 5.368851,-0.43983 0.202869,0.18931 -1.286724,2.27822 -3.310206,4.64201 -7.134242,8.33411 -12.423501,22.66199 -14.079255,38.13878 l -0.731866,6.84096 3.004624,-1.55375 c 14.144569,-7.31444 37.664197,-7.2985 48.853647,0.0331 L 83,178.23002 v -5.50967 c 0,-11.22216 5.587703,-23.50088 14.754258,-32.42181 L 102.5,135.67996 95,136.26859 c -8.497376,0.66691 -15.421354,2.83917 -18.616032,5.84042 -1.260387,1.18407 -2.429574,1.62621 -2.783967,1.0528 -0.336045,-0.54374 1.687601,-3.50364 4.496991,-6.57756 6.347326,-6.94498 17.198315,-12.53937 31.403008,-16.19027 8.49605,-2.18367 12.95758,-2.65108 29.66547,-3.10788 19.36382,-0.52942 31.89231,0.15427 30.19835,1.64794 -0.4751,0.41893 -4.2269,1.339 -8.33733,2.04459 -13.69058,2.3501 -23.8065,6.72891 -28.87117,12.49725 -4.07573,4.64201 -4.12315,8.60645 -0.17734,14.82834 2.58745,4.08 2.74239,4.69578 1.1815,4.69578 -4.46415,0 -12.75782,3.39834 -15.85683,6.49735 -2.83903,2.83903 -3.29957,3.98349 -3.28069,8.15265 0.0398,8.79666 6.67245,19.72457 21.1859,34.9059 15.54848,16.26399 30.8887,26.33435 45.51192,29.87711 6.26414,1.5176 12.28022,1.96236 12.28022,0.90786 z m 81.998,-43.93518 c 8.17023,-12.51554 11.07612,-25.50587 7.57826,-33.87742 -2.03999,-4.88238 -8.99377,-12.05413 -14.9526,-15.42129 -6.27989,-3.54859 -16.58981,-7.25779 -26.81698,-9.64796 -6.32958,-1.47927 -7.96927,-1.56897 -9.25,-0.50606 -2.67978,2.22402 -1.73113,4.96783 3.54005,10.239 l 5.09672,5.09673 -3.34672,-0.67936 c -11.75694,-2.38658 -19.09569,-2.69034 -40.68502,-1.68399 -21.7071,1.01183 -31.02731,2.29123 -35.91171,4.92964 -6.87377,3.71302 1.97852,8.39913 28.56716,15.12252 33.50916,8.47336 61.96624,19.99623 73.66382,29.82803 3.28953,2.76485 6.37132,4.78575 6.84842,4.49089 0.4771,-0.29486 3.02797,-3.84569 5.6686,-7.89073 z M 259.10212,152.41436 C 257.23328,151.08646 254.97091,150 254.07462,150 251.49342,150 248,147.07392 248,144.91191 c 0,-4.56169 5.64899,-3.12019 12.49233,3.18778 6.75175,6.22355 5.73544,9.3778 -1.39021,4.31467 z m -17.36344,37.98652 c 2.88127,-0.34567 4.98529,-1.03849 4.67559,-1.53959 -0.93112,-1.50658 -14.05076,-7.7858 -26.16131,-12.52111 C 209.70881,172.21734 180.31282,164 176.10829,164 c -1.41952,0 -1.97701,1.02554 -2.4556,4.51723 -0.70614,5.15189 -2.67085,9.38435 -6.7897,14.62667 -1.57465,2.00415 -2.86299,3.88475 -2.86299,4.17911 0,0.79386 9.50224,2.62133 18.55198,3.56791 8.54201,0.89347 50.5542,0.54563 59.1867,-0.49004 z m -44.13039,-62.44205 2.73849,-1.04117 -3.42339,-1.70883 c -2.98453,-1.48977 -3.40358,-2.15751 -3.26889,-5.20883 0.085,-1.925 0.46556,-4.6885 0.84576,-6.14112 0.56564,-2.16113 0.0161,-3.38848 -3.02393,-6.7534 -3.64598,-4.03567 -18.09538,-13.819768 -19.02963,-12.885513 -0.26151,0.261515 0.62578,2.906505 1.97177,5.877753 1.34599,2.97126 2.96451,8.32728 3.59672,11.90228 1.69594,9.59018 4.92044,13.92222 11.95328,16.05896 3.58295,1.08858 4.54649,1.07595 7.63982,-0.10013 z"
         id="path90009" />
      <path
         style="fill:#494949;fill-opacity:1"
         d="m 196.5,238.33283 c -17.60424,-1.4566 -30.95891,-5.03693 -40.57377,-10.87764 -3.07613,-1.86865 -9.38045,-6.81109 -14.0096,-10.98319 -13.13258,-11.83596 -17.827,-13.60343 -29.41935,-11.07653 -3.8485,0.83889 -7.92748,1.79906 -9.06438,2.1337 -1.70507,0.50187 -2.40418,-0.14795 -3.991773,-3.71037 -2.958501,-6.63863 -16.64536,-19.88524 -24.497486,-23.70951 -12.399311,-6.03892 -23.792765,-5.27912 -42.121246,2.80894 l -8.689675,3.83461 -0.700921,-6.5451 c -1.433492,-13.38574 1.787784,-32.95575 6.466192,-39.28364 2.559908,-3.46246 2.697433,-5.23577 0.352009,-4.53898 -0.9625,0.28595 -3.051203,0.83105 -4.641562,1.21133 l -2.891563,0.69143 1.891563,-3.24609 C 27.9448,129.31631 41.39211,113.73521 49.821427,105.82806 54.319642,101.60849 58,97.895991 58,97.578059 58,97.260126 56.226558,97 54.059017,97 51.891476,97 49.86822,96.595792 49.562891,96.10176 48.112086,93.754309 73.790577,80.627105 88.209161,76.345245 93.566802,74.754197 94.199581,73.503688 90.5,71.818046 89.125,71.191554 88,70.366295 88,69.984138 c 0,-0.859594 12.63095,-3.538891 24,-5.090918 4.675,-0.6382 16.15,-1.151136 25.5,-1.139859 27.27703,0.0329 47.6575,4.267904 68,14.130204 13.9199,6.748543 22.72646,13.074118 29.10714,20.907078 6.89317,8.462087 8.76456,12.702137 8.88604,20.133257 l 0.10501,6.4239 6.9509,2.34127 c 10.8627,3.65888 26.56751,11.78436 30.77595,15.92311 10.95803,10.77654 11.27134,26.34657 0.88947,44.20205 C 277.14298,196.5366 268.56489,208 267.10945,208 c -0.49095,0 -1.16737,-1.09465 -1.50317,-2.43256 -0.33579,-1.33791 -2.78022,-4.7922 -5.43207,-7.6762 l -4.82154,-5.24364 -19.00472,1.32808 c -11.18111,0.78136 -26.0737,1.10558 -36.17633,0.78759 L 183,194.22277 l -0.15552,2.63862 c -0.61524,10.43806 2.93469,17.78638 16.37142,33.88861 7.6546,9.17309 7.9093,8.46197 -2.7159,7.58283 z m -4.79066,-7.67279 c -10.76935,-14.23439 -14.49101,-21.62014 -15.51595,-30.79193 -0.78298,-7.00655 0.21885,-6.31495 -13.55106,-9.35479 l -7.85766,-1.73465 4.48036,-4.13934 c 4.76868,-4.4057 9.73497,-13.03692 9.73497,-16.919 0,-2.94148 -3.81554,-6.56104 -11.33741,-10.75508 -5.85807,-3.26635 -8.42593,-6.53364 -7.34625,-9.34724 1.3506,-3.51962 20.37658,-6.78197 49.68366,-8.51919 17.12083,-1.01486 22.40571,-2.11985 23.95133,-5.00789 1.23493,-2.30747 0.15821,-3.72939 -4.20426,-5.55214 -5.20118,-2.17319 -8.04145,-1.91879 -10.7485,0.96273 -4.87445,5.18862 -17.3645,6.11373 -25.79857,1.91085 -8.12276,-4.04774 -10.02954,-7.47778 -13.67122,-24.59271 -2.09463,-9.844195 -4.63667,-13.544079 -12.05209,-17.541544 L 151.5,86.056232 l 5.09004,-0.02812 c 7.28264,-0.04023 19.34983,3.307582 27.71044,7.687731 5.02778,2.634068 10.03121,6.557117 16.58685,13.005277 9.80394,9.64321 14.19042,12.41891 22.73121,14.384 6.73588,1.54981 9.91021,0.68548 11.21356,-3.05333 2.24273,-6.43348 -3.54292,-15.90632 -14.95402,-24.484195 C 211.53074,87.292791 193.73587,78.72501 182.5,75.570999 164.29267,70.460034 156.17758,69.495933 132,69.571425 c -12.375,0.03864 -24.3,0.532038 -26.5,1.096441 l -4,1.026188 2.71864,1.299201 C 107.33289,74.481508 106.98569,76 103.53116,76 99.416129,76 83.553969,81.699635 72.389703,87.189835 L 61.591535,92.5 l 6.269287,0.84595 6.269286,0.845949 -6.315054,3.627509 c -8.976259,5.156162 -34.536845,30.792132 -32.616393,32.712582 0.258268,0.25827 2.569224,0.0773 5.135459,-0.4021 C 42.900354,129.65047 45,129.42385 45,129.6263 c 0,0.20244 -1.996916,3.0807 -4.437592,6.39613 C 33.634749,145.43298 29,160.29181 29,173.09106 v 5.9603 l 2.75,-1.3895 c 12.739348,-6.43687 29.595364,-7.95703 40.75,-3.67505 3.3,1.26678 6.887628,2.91298 7.972506,3.65822 C 83.628705,179.81311 84,179.33528 84,173.10534 c 0,-11.60044 7.223049,-27.2244 15.5071,-33.54296 5.40962,-4.12612 4.59062,-4.9445 -4.2571,-4.25387 -8.544273,0.66694 -13.334536,2.01164 -17.5,4.91254 -4.128515,2.87516 -3.309986,0.73731 1.5,-3.91772 9.23117,-8.9338 21.39183,-14.09192 39.74584,-16.85879 10.13614,-1.52802 45.58789,-1.99591 47.73824,-0.63005 0.73256,0.46531 -1.50262,1.25343 -5.5,1.9393 -15.74083,2.70081 -27.62951,8.24262 -30.78876,14.35195 -2.1612,4.17929 -1.40899,9.94205 1.85657,14.22342 l 2.48217,3.25428 -6.08375,1.15617 c -13.85174,2.63242 -18.5332,12.00468 -12.28841,24.60136 5.33977,10.77111 22.94262,30.49333 35.93394,40.26036 7.07494,5.31903 19.18948,11.64998 25.69131,13.42605 5.46627,1.49319 14.17582,2.74704 15.26292,2.19729 0.44004,-0.22253 -0.27579,-1.82661 -1.59073,-3.56463 z M 273.72391,191.75 c 6.85203,-10.17705 9.65911,-17.26541 10.10421,-25.51492 0.54142,-10.03453 -2.61631,-16.61097 -10.90609,-22.71356 -9.43897,-6.94857 -31.61973,-15.06362 -39.17977,-14.3343 -2.69148,0.25965 -3.29559,0.7756 -3.55622,3.03724 -0.24059,2.08783 0.74169,3.85304 4.20364,7.55414 l 4.51759,4.82967 -7.20363,-1.26444 c -12.2889,-2.15705 -51.32151,-1.12036 -64.53819,1.71411 -6.63995,1.42401 -10.0991,4.10048 -8.56805,6.62941 1.90361,3.14431 11.43623,6.99916 25.4026,10.27242 24.59429,5.7641 55.75851,16.89104 69.03023,24.6467 3.04162,1.77745 7.54162,5.04968 10,7.27161 2.45837,2.22194 4.92334,4.05835 5.47771,4.08091 0.55437,0.0225 2.90156,-2.77149 5.21597,-6.20899 z m -13.1221,-38.84857 c -1.44829,-1.13923 -4.31368,-2.52989 -6.36753,-3.09035 C 249.58813,148.54323 248,147.28646 248,144.87756 c 0,-4.65501 11.06792,-10e-4 15.27779,6.42365 2.1988,3.35579 0.69733,4.25366 -2.67598,1.60022 z m -13.28498,37.15914 c 1.58708,-1.54316 -18.3635,-11.32053 -33.81683,-16.57295 -11.32693,-3.8499 -37.85781,-10.43001 -38.73514,-9.60698 -0.40432,0.3793 -1.19377,3.14882 -1.75432,6.1545 -0.67612,3.62541 -2.38011,7.40653 -5.0624,11.23342 -2.22378,3.17271 -3.79921,6.16339 -3.50097,6.64596 0.46814,0.75747 7.09526,1.88209 20.55283,3.48781 5.88464,0.70214 61.44509,-0.49415 62.31683,-1.34176 z M 197.75,128.36971 c 3.04037,-0.81478 2.80478,-1.59183 -1.02164,-3.36971 -2.36078,-1.0969 -3.31655,-2.27176 -3.55654,-4.37182 -0.1805,-1.5795 0.157,-3.357 0.75,-3.95 3.56221,-3.56221 -2.99953,-12.39851 -14.07035,-18.947734 -8.38368,-4.959568 -9.31101,-4.809777 -6.31192,1.019554 1.34409,2.6125 3.03972,7.94162 3.76808,11.8425 1.73345,9.28378 4.18213,13.37225 9.67714,16.1575 4.57161,2.31721 6.87137,2.66323 10.76523,1.61971 z"
         id="path90008" />
      <path
         style="fill:#333333;fill-opacity:1"
         d="m 203.45888,237.93347 c -1.07627,-1.74144 0.14952,-2.11024 1.52106,-0.45764 0.78875,0.95039 0.86462,1.52417 0.20152,1.52417 -0.58488,0 -1.36004,-0.47994 -1.72258,-1.06653 z M 192.25,237.28375 c 1.5125,-0.22913 3.9875,-0.22913 5.5,0 1.5125,0.22912 0.275,0.41659 -2.75,0.41659 -3.025,0 -4.2625,-0.18747 -2.75,-0.41659 z m -9,-0.97308 c 0.9625,-0.25152 2.5375,-0.25152 3.5,0 0.9625,0.25153 0.175,0.45733 -1.75,0.45733 -1.925,0 -2.7125,-0.2058 -1.75,-0.45733 z m -5.5,-0.97295 c 0.6875,-0.27741 1.8125,-0.27741 2.5,0 0.6875,0.27741 0.125,0.50439 -1.25,0.50439 -1.375,0 -1.9375,-0.22698 -1.25,-0.50439 z m -3.9375,-1.02083 c 0.72187,-0.28887 1.58437,-0.25335 1.91667,0.0789 0.33229,0.33229 -0.25834,0.56864 -1.3125,0.52522 -1.16495,-0.048 -1.4019,-0.28494 -0.60417,-0.60416 z m 11.45653,-0.01 c 0.97297,-0.25354 2.32297,-0.23687 3,0.0371 0.67703,0.27393 -0.11903,0.48137 -1.76903,0.46099 -1.65,-0.0204 -2.20394,-0.2445 -1.23097,-0.49804 z M 199.40499,232.75 197.5,230.5 l 2.25,1.90499 c 2.11444,1.79022 2.70524,2.59501 1.90499,2.59501 -0.18976,0 -1.20226,-1.0125 -2.25,-2.25 z m -19.59249,0.56689 c 0.72187,-0.28887 1.58437,-0.25335 1.91667,0.0789 0.33229,0.33229 -0.25834,0.56864 -1.3125,0.52522 -1.16495,-0.048 -1.4019,-0.28494 -0.60417,-0.60416 z M 147.87244,221.25 c -1.24387,-1.58606 -1.2085,-1.62143 0.37756,-0.37756 0.9625,0.75485 1.75,1.54235 1.75,1.75 0,0.82304 -0.82119,0.29331 -2.12756,-1.37244 z m 4,-2 c -1.24387,-1.58606 -1.2085,-1.62143 0.37756,-0.37756 0.9625,0.75485 1.75,1.54235 1.75,1.75 0,0.82304 -0.82119,0.29331 -2.12756,-1.37244 z m -10.43535,-3.5 -2.93709,-3.25 3.25,2.93709 c 3.02946,2.73778 3.70965,3.56291 2.93709,3.56291 -0.1721,0 -1.6346,-1.4625 -3.25,-3.25 z m 5.9679,0 -1.90499,-2.25 2.25,1.90499 c 2.11444,1.79022 2.70524,2.59501 1.90499,2.59501 -0.18976,0 -1.20226,-1.0125 -2.25,-2.25 z m 38.05389,-1.81653 c -0.36253,-0.58659 -0.44468,-1.281 -0.18255,-1.54313 0.26212,-0.26213 0.74306,0.21781 1.06875,1.06653 0.67618,1.76211 0.0999,2.07206 -0.8862,0.4766 z M 266.5,207 c -0.33992,-0.55 -0.14148,-1 0.44098,-1 0.58246,0 1.05902,0.45 1.05902,1 0,0.55 -0.19844,1 -0.44098,1 -0.24254,0 -0.7191,-0.45 -1.05902,-1 z M 129,206 c -0.90129,-0.58246 -1.02463,-0.97549 -0.30902,-0.98469 0.65504,-0.008 1.4691,0.43469 1.80902,0.98469 0.7673,1.24153 0.42112,1.24153 -1.5,0 z m -21.1875,-0.68311 c 0.72187,-0.28887 1.58437,-0.25335 1.91667,0.0789 0.33229,0.33229 -0.25834,0.56864 -1.3125,0.52522 -1.16495,-0.048 -1.4019,-0.28494 -0.60417,-0.60416 z m 3.9375,-0.97917 c 0.6875,-0.27741 1.8125,-0.27741 2.5,0 0.6875,0.27741 0.125,0.50439 -1.25,0.50439 -1.375,0 -1.9375,-0.22698 -1.25,-0.50439 z m 13.0625,-0.0208 c 0.72187,-0.28887 1.58437,-0.25335 1.91667,0.0789 0.33229,0.33229 -0.25834,0.56864 -1.3125,0.52522 -1.16495,-0.048 -1.4019,-0.28494 -0.60417,-0.60416 z m -6.0625,-0.97917 c 0.6875,-0.27741 1.8125,-0.27741 2.5,0 0.6875,0.27741 0.125,0.50439 -1.25,0.50439 -1.375,0 -1.9375,-0.22698 -1.25,-0.50439 z M 98,201 c -0.588702,-1.1 -0.845368,-2 -0.570368,-2 0.275,0 0.981666,0.9 1.570368,2 0.588702,1.1 0.845368,2 0.570368,2 -0.275,0 -0.981666,-0.9 -1.570368,-2 z m 78.07895,-0.58333 c 0.048,-1.16495 0.28494,-1.4019 0.60416,-0.60417 0.28887,0.72187 0.25335,1.58437 -0.0789,1.91667 -0.3323,0.33229 -0.56864,-0.25834 -0.52522,-1.3125 z M 261.87244,199.25 c -1.24387,-1.58606 -1.2085,-1.62143 0.37756,-0.37756 1.66575,1.30637 2.19548,2.12756 1.37244,2.12756 -0.20765,0 -0.99515,-0.7875 -1.75,-1.75 z m -166.999995,-3 c -1.243871,-1.58606 -1.208501,-1.62143 0.377555,-0.37756 0.9625,0.75485 1.75,1.54235 1.75,1.75 0,0.82304 -0.821186,0.29331 -2.127555,-1.37244 z m 31.999995,-1 c -1.24387,-1.58606 -1.2085,-1.62143 0.37756,-0.37756 0.9625,0.75485 1.75,1.54235 1.75,1.75 0,0.82304 -0.82119,0.29331 -2.12756,-1.37244 z M 190,192.98689 c 6.79544,-0.78735 24.6381,-1.25259 23.91667,-0.62362 -0.22917,0.19979 -7.16667,0.59129 -15.41667,0.87 -9.07109,0.30644 -12.43081,0.20906 -8.5,-0.24638 z m 37.7277,0.29138 c 1.77523,-0.22091 4.92523,-0.22454 7,-0.008 2.07476,0.21648 0.6223,0.39722 -3.2277,0.40166 -3.85,0.004 -5.54754,-0.17268 -3.7723,-0.39359 z m 7.7723,-1.32222 c -4.66048,-0.54276 -3.80217,-0.63195 3.84456,-0.39951 5.41451,0.16459 10.10201,0.5567 10.41667,0.87136 0.69871,0.6987 -6.15804,0.47184 -14.26123,-0.47185 z M 169,191 c 1.375,-0.44035 3.4,-0.81387 4.5,-0.83003 l 2,-0.0294 -2,0.85943 c -1.1,0.47269 -3.125,0.8462 -4.5,0.83003 l -2.5,-0.0294 z m 10.76166,0.29274 c 1.24391,-0.23919 3.04391,-0.23011 4,0.0202 0.95609,0.25029 -0.0617,0.446 -2.26166,0.4349 -2.2,-0.0111 -2.98225,-0.21589 -1.73834,-0.45508 z M 164.5,190 c 2.74909,-1.18132 4.32797,-1.18132 2.5,0 -0.825,0.53316 -2.175,0.94464 -3,0.9144 -0.98906,-0.0362 -0.81874,-0.34772 0.5,-0.9144 z m -4.6875,-0.68311 c 0.72187,-0.28887 1.58437,-0.25335 1.91667,0.0789 0.33229,0.33229 -0.25834,0.56864 -1.3125,0.52522 -1.16495,-0.048 -1.4019,-0.28494 -0.60417,-0.60416 z M 156,188.62244 c 0,-0.20765 0.6853,-0.9463 1.52289,-1.64144 1.27335,-1.05678 1.41968,-0.99492 0.89301,0.37756 -0.53789,1.40173 -2.4159,2.38422 -2.4159,1.26388 z M 24,184.05902 C 24,182.37656 24.17254,181 24.383423,181 c 0.848592,0 1.288034,5.08502 0.482468,5.58288 C 24.389651,186.87722 24,185.74148 24,184.05902 Z M 83.872445,185.25 c -1.243871,-1.58606 -1.208501,-1.62143 0.377555,-0.37756 0.9625,0.75485 1.75,1.54235 1.75,1.75 0,0.82304 -0.821186,0.29331 -2.127555,-1.37244 z M 23.309869,171.5 c 0.0056,-3.3 0.192301,-4.52944 0.414862,-2.73209 0.222562,1.79735 0.217969,4.49735 -0.0102,6 -0.228174,1.50265 -0.41027,0.0321 -0.404657,-3.26791 z M 47.75,176.33772 c 0.6875,-0.27741 1.8125,-0.27741 2.5,0 0.6875,0.27741 0.125,0.50439 -1.25,0.50439 -1.375,0 -1.9375,-0.22698 -1.25,-0.50439 z m 19.0625,-0.0208 c 0.721875,-0.28887 1.584375,-0.25335 1.916667,0.0789 0.332291,0.33229 -0.258334,0.56864 -1.3125,0.52522 -1.164943,-0.048 -1.4019,-0.28494 -0.604167,-0.60416 z M 54.727696,175.2783 c 1.775232,-0.22091 4.925232,-0.22454 7,-0.008 2.074767,0.21648 0.622304,0.39722 -3.227696,0.40166 -3.85,0.004 -5.547537,-0.17268 -3.772304,-0.39359 z m 58.351254,-2.8616 c 0.048,-1.16495 0.28494,-1.4019 0.60416,-0.60417 0.28887,0.72187 0.25335,1.58437 -0.0789,1.91667 -0.3323,0.33229 -0.56864,-0.25834 -0.52522,-1.3125 z M 172.15789,170 c 0,-1.375 0.22698,-1.9375 0.50439,-1.25 0.27741,0.6875 0.27741,1.8125 0,2.5 -0.27741,0.6875 -0.50439,0.125 -0.50439,-1.25 z m -60.07894,-2.58333 c 0.048,-1.16495 0.28494,-1.4019 0.60416,-0.60417 0.28887,0.72187 0.25335,1.58437 -0.0789,1.91667 -0.3323,0.33229 -0.56864,-0.25834 -0.52522,-1.3125 z M 289.25218,163.5 c 0.0111,-2.2 0.21589,-2.98225 0.45508,-1.73834 0.23919,1.24391 0.23011,3.04391 -0.0202,4 -0.25029,0.95609 -0.446,-0.0617 -0.4349,-2.26166 z m -176.18879,0.30576 c -0.0349,-0.93183 0.94911,-2.75388 2.18661,-4.04901 1.2375,-1.29512 1.71119,-1.64846 1.05265,-0.7852 -0.65854,0.86327 -1.64252,2.68532 -2.18661,4.04901 -0.65784,1.64878 -1.0105,1.91183 -1.05265,0.7852 z M 24.232003,160 c 0,-1.925 0.205795,-2.7125 0.457323,-1.75 0.251527,0.9625 0.251527,2.5375 0,3.5 -0.251528,0.9625 -0.457323,0.175 -0.457323,-1.75 z m 150.580497,0.31689 c 0.72187,-0.28887 1.58437,-0.25335 1.91667,0.0789 0.33229,0.33229 -0.25834,0.56864 -1.3125,0.52522 -1.16495,-0.048 -1.4019,-0.28494 -0.60417,-0.60416 z m -17.37137,-3.87206 c -1.86402,-1.49339 -1.85176,-1.51185 0.30887,-0.46481 1.2375,0.59969 2.25,1.29951 2.25,1.55516 0,0.76522 -0.51861,0.54424 -2.55887,-1.09035 z M 25.078947,153.41667 c 0.04798,-1.16495 0.284941,-1.4019 0.604167,-0.60417 0.288871,0.72187 0.253344,1.58437 -0.07895,1.91667 -0.332292,0.33229 -0.568641,-0.25834 -0.52522,-1.3125 z m 238.000003,0 c 0.048,-1.16495 0.28494,-1.4019 0.60416,-0.60417 0.28887,0.72187 0.25335,1.58437 -0.0789,1.91667 -0.33229,0.33229 -0.56864,-0.25834 -0.52522,-1.3125 z m -133.55327,-6.36701 c -0.83912,-1.62269 -1.487,-3.76019 -1.43973,-4.75 0.0572,-1.19681 0.34601,-0.94264 0.86228,0.75874 0.42697,1.40712 1.30413,3.54462 1.94923,4.75 0.6451,1.20538 0.94363,2.1916 0.6634,2.1916 -0.28022,0 -1.19606,-1.32765 -2.03518,-2.95034 z M 248.2522,145 c 0.22245,-0.825 1.49421,-1.58309 2.82613,-1.68464 1.90949,-0.1456 1.99867,-0.0683 0.42167,0.36568 -1.1,0.30268 -2.37176,1.06077 -2.82613,1.68464 -0.54586,0.74949 -0.68891,0.62542 -0.42167,-0.36568 z m -82.4397,-0.68311 c 0.72187,-0.28887 1.58437,-0.25335 1.91667,0.0789 0.33229,0.33229 -0.25834,0.56864 -1.3125,0.52522 -1.16495,-0.048 -1.4019,-0.28494 -0.60417,-0.60416 z M 279.87244,143.25 c -1.24387,-1.58606 -1.2085,-1.62143 0.37756,-0.37756 0.9625,0.75485 1.75,1.54235 1.75,1.75 0,0.82304 -0.82119,0.29331 -2.12756,-1.37244 z m -118.05994,0.0669 c 0.72187,-0.28887 1.58437,-0.25335 1.91667,0.0789 0.33229,0.33229 -0.25834,0.56864 -1.3125,0.52522 -1.16495,-0.048 -1.4019,-0.28494 -0.60417,-0.60416 z M 168.5,143 c -2.69472,-0.68569 -2.7456,-0.76527 -0.5,-0.78201 1.375,-0.0102 3.625,0.34166 5,0.78201 1.95899,0.62738 2.0672,0.79661 0.5,0.78201 -1.1,-0.0103 -3.35,-0.36216 -5,-0.78201 z m 67.3125,0.31689 c 0.72187,-0.28887 1.58437,-0.25335 1.91667,0.0789 0.33229,0.33229 -0.25834,0.56864 -1.3125,0.52522 -1.16495,-0.048 -1.4019,-0.28494 -0.60417,-0.60416 z M 176.5,142 l -4,-0.71619 3.5,-0.0678 c 1.925,-0.0373 5.525,0.29254 8,0.73293 l 4.5,0.80071 -4,-0.0167 c -2.2,-0.009 -5.8,-0.33903 -8,-0.73293 z m 53.3125,0.31689 c 0.72187,-0.28887 1.58437,-0.25335 1.91667,0.0789 0.33229,0.33229 -0.25834,0.56864 -1.3125,0.52522 -1.16495,-0.048 -1.4019,-0.28494 -0.60417,-0.60416 z M 209.25,141.26496 c 2.6125,-0.206 6.8875,-0.206 9.5,0 2.6125,0.206 0.475,0.37454 -4.75,0.37454 -5.225,0 -7.3625,-0.16854 -4.75,-0.37454 z m -23.5,-0.98836 c 1.7875,-0.22182 4.7125,-0.22182 6.5,0 1.7875,0.22183 0.325,0.40333 -3.25,0.40333 -3.575,0 -5.0375,-0.1815 -3.25,-0.40333 z m -57.66405,-1.91582 c -0.0473,-1.17656 0.70155,-2.99777 1.66405,-4.04713 0.9625,-1.04935 1.38128,-1.35297 0.93061,-0.67471 -0.45066,0.67826 -1.19948,2.49946 -1.66404,4.04713 -0.68499,2.28199 -0.86091,2.40954 -0.93062,0.67471 z m 75.64175,0.91749 c 1.77523,-0.22091 4.92523,-0.22454 7,-0.008 2.07476,0.21648 0.6223,0.39722 -3.2277,0.40166 -3.85,0.004 -5.54754,-0.17268 -3.7723,-0.39359 z m 13.0848,-0.96138 c 0.72187,-0.28887 1.58437,-0.25335 1.91667,0.0789 0.33229,0.33229 -0.25834,0.56864 -1.3125,0.52522 -1.16495,-0.048 -1.4019,-0.28494 -0.60417,-0.60416 z m -23,-5 c 0.72187,-0.28887 1.58437,-0.25335 1.91667,0.0789 0.33229,0.33229 -0.25834,0.56864 -1.3125,0.52522 -1.16495,-0.048 -1.4019,-0.28494 -0.60417,-0.60416 z m 35.26645,-0.90022 c 0.048,-1.16495 0.28494,-1.4019 0.60416,-0.60417 0.28887,0.72187 0.25335,1.58437 -0.0789,1.91667 -0.3323,0.33229 -0.56864,-0.25834 -0.52522,-1.3125 z m -28.26645,-0.0998 c 0.72187,-0.28887 1.58437,-0.25335 1.91667,0.0789 0.33229,0.33229 -0.25834,0.56864 -1.3125,0.52522 -1.16495,-0.048 -1.4019,-0.28494 -0.60417,-0.60416 z m 3.27083,-0.68144 c 0.22917,-0.2005 1.54167,-0.90032 2.91667,-1.55516 2.35727,-1.12265 2.38918,-1.10183 0.55887,0.36454 -1.593,1.27626 -4.84786,2.39128 -3.47554,1.19062 z M 192.25,129.31067 c 0.9625,-0.25152 2.5375,-0.25152 3.5,0 0.9625,0.25153 0.175,0.45733 -1.75,0.45733 -1.925,0 -2.7125,-0.2058 -1.75,-0.45733 z m 48.5625,0.006 c 0.72187,-0.28887 1.58437,-0.25335 1.91667,0.0789 0.33229,0.33229 -0.25834,0.56864 -1.3125,0.52522 -1.16495,-0.048 -1.4019,-0.28494 -0.60417,-0.60416 z M 136,128.5095 c 0,-0.68426 6.12291,-3.71992 6.58037,-3.26246 0.21698,0.21698 -1.17483,1.14288 -3.09293,2.05756 C 137.56935,128.21927 136,128.76148 136,128.5095 Z m 74.87908,-1.78858 c 0.4825,-0.4825 2.1696,-0.71609 3.7491,-0.5191 2.64362,0.32972 2.5739,0.39943 -0.87727,0.87727 -2.14974,0.29765 -3.37485,0.14485 -2.87183,-0.35817 z M 32,125.62244 c 0,-0.20765 0.7875,-0.99515 1.75,-1.75 1.586056,-1.24387 1.621426,-1.2085 0.377555,0.37756 C 32.821186,125.91575 32,126.44548 32,125.62244 Z m 142.45888,-1.68897 c -0.36253,-0.58659 -0.44468,-1.281 -0.18255,-1.54313 0.26212,-0.26213 0.74306,0.21781 1.06875,1.06653 0.67618,1.76211 0.0999,2.07206 -0.8862,0.4766 z M 35,121.62244 c 0,-0.20765 0.7875,-0.99515 1.75,-1.75 1.586056,-1.24387 1.621426,-1.2085 0.377555,0.37756 C 35.821186,121.91575 35,122.44548 35,121.62244 Z M 243.232,119 c 0,-1.925 0.2058,-2.7125 0.45733,-1.75 0.25152,0.9625 0.25152,2.5375 0,3.5 -0.25153,0.9625 -0.45733,0.175 -0.45733,-1.75 z M 44,111.5 c 2.987424,-3.025 5.65668,-5.5 5.93168,-5.5 0.275,0 -1.944256,2.475 -4.93168,5.5 -2.987424,3.025 -5.65668,5.5 -5.93168,5.5 -0.275,0 1.944256,-2.475 4.93168,-5.5 z m 132.19495,-1 c 0.0204,-1.65 0.2445,-2.20394 0.49804,-1.23097 0.25354,0.97297 0.23687,2.32297 -0.0371,3 -0.27393,0.67703 -0.48137,-0.11903 -0.46099,-1.76903 z m -1.116,-5.08333 c 0.048,-1.16495 0.28494,-1.4019 0.60416,-0.60417 0.28887,0.72187 0.25335,1.58437 -0.0789,1.91667 -0.3323,0.33229 -0.56864,-0.25834 -0.52522,-1.3125 z M 172.6954,99.487443 C 171.78073,97.569349 171.23852,96 171.4905,96 c 0.68426,0 3.71992,6.12291 3.26246,6.58037 -0.21698,0.21698 -1.14288,-1.17483 -2.05756,-3.092927 z M 230.46241,95.75 225.5,90.5 l 5.25,4.962408 C 235.62839,100.07357 236.4586,101 235.71241,101 c -0.15818,0 -2.52068,-2.3625 -5.25,-5.25 z M 179.75,97.428025 C 176.01156,95.399887 176.23912,94.555172 180,96.5 c 1.65,0.853248 3,1.764804 3,2.02568 0,0.643497 -0.10745,0.607208 -3.25,-1.097655 z M 53.25,96.310674 c 0.9625,-0.251527 2.5375,-0.251527 3.5,0 0.9625,0.251528 0.175,0.457323 -1.75,0.457323 -1.925,0 -2.7125,-0.205795 -1.75,-0.457323 z M 50,94.9512 c 3.468595,-2.354424 5.443933,-3.03957 3,-1.040551 -1.375,1.124684 -2.95,2.047995 -3.5,2.051802 -0.55,0.0038 -0.325,-0.451255 0.5,-1.011251 z M 71,83 c 0.825,-0.533156 1.95,-0.969374 2.5,-0.969374 0.55,0 0.325,0.436218 -0.5,0.969374 -0.825,0.533156 -1.95,0.969374 -2.5,0.969374 -0.55,0 -0.325,-0.436218 0.5,-0.969374 z m 138,-2.5 c -2.475,-1.325294 -4.14457,-2.429959 -3.71016,-2.454813 1.06195,-0.06076 8.71016,3.868766 8.71016,4.475137 0,0.662489 0.0415,0.679252 -5,-2.020324 z M 76,81 c 0.825,-0.533156 1.95,-0.969374 2.5,-0.969374 0.55,0 0.325,0.436218 -0.5,0.969374 -0.825,0.533156 -1.95,0.969374 -2.5,0.969374 -0.55,0 -0.325,-0.436218 0.5,-0.969374 z M 90.25,71.337719 C 88.819546,70.760519 88.550701,69 89.893011,69 c 0.491156,0 1.152033,0.675 1.468615,1.5 0.316583,0.825 0.477228,1.464474 0.356989,1.421053 C 91.598377,71.877632 90.9375,71.615132 90.25,71.337719 Z m 3.5625,-3.020833 c 0.721875,-0.288871 1.584375,-0.253344 1.916667,0.07895 0.332291,0.332292 -0.258334,0.568641 -1.3125,0.52522 -1.164943,-0.04798 -1.4019,-0.284941 -0.604167,-0.604167 z M 97.75,67.337719 c 0.6875,-0.277412 1.8125,-0.277412 2.5,0 0.6875,0.277413 0.125,0.504386 -1.25,0.504386 -1.375,0 -1.9375,-0.226973 -1.25,-0.504386 z m 74,0 c 0.6875,-0.277412 1.8125,-0.277412 2.5,0 0.6875,0.277413 0.125,0.504386 -1.25,0.504386 -1.375,0 -1.9375,-0.226973 -1.25,-0.504386 z m -67.48097,-1.03071 c 0.97297,-0.253543 2.32297,-0.236869 3,0.03705 0.67703,0.273923 -0.11903,0.481368 -1.76903,0.460988 -1.65,-0.02038 -2.20394,-0.244498 -1.23097,-0.498042 z m 62,0 c 0.97297,-0.253543 2.32297,-0.236869 3,0.03705 0.67703,0.273923 -0.11903,0.481368 -1.76903,0.460988 -1.65,-0.02038 -2.20394,-0.244498 -1.23097,-0.498042 z m -55.50737,-1.01427 c 1.24391,-0.239193 3.04391,-0.230112 4,0.02018 0.95609,0.250292 -0.0617,0.445996 -2.26166,0.434897 -2.2,-0.0111 -2.98225,-0.215885 -1.73834,-0.455077 z m 48,0 c 1.24391,-0.239193 3.04391,-0.230112 4,0.02018 0.95609,0.250292 -0.0617,0.445996 -2.26166,0.434897 -2.2,-0.0111 -2.98225,-0.215885 -1.73834,-0.455077 z M 120.7277,64.278268 c 1.77523,-0.220912 4.92523,-0.224542 7,-0.0081 2.07476,0.216475 0.6223,0.397221 -3.2277,0.401658 -3.85,0.0044 -5.54754,-0.17268 -3.7723,-0.393592 z m 24,0 c 1.77523,-0.220912 4.92523,-0.224542 7,-0.0081 2.07476,0.216475 0.6223,0.397221 -3.2277,0.401658 -3.85,0.0044 -5.54754,-0.17268 -3.7723,-0.393592 z"
         id="path90007" />
    </g>
  </g>
</svg>
